<?xml version="1.0" encoding="UTF-8" standalone="no"?>
<!-- Created with Inkscape (http://www.inkscape.org/) -->

<!-- Author : HerrCrazi. Free use. -->

<svg
   xmlns:dc="http://purl.org/dc/elements/1.1/"
   xmlns:cc="http://creativecommons.org/ns#"
   xmlns:rdf="http://www.w3.org/1999/02/22-rdf-syntax-ns#"
   xmlns:svg="http://www.w3.org/2000/svg"
   xmlns="http://www.w3.org/2000/svg"
   xmlns:sodipodi="http://sodipodi.sourceforge.net/DTD/sodipodi-0.dtd"
   xmlns:inkscape="http://www.inkscape.org/namespaces/inkscape"
   width="210mm"
   height="297mm"
   viewBox="0 0 210 297"
   version="1.1"
   id="svg8"
   inkscape:version="0.92.3 (2405546, 2018-03-11)"
   sodipodi:docname="rocket_building.svg"
   inkscape:export-filename="/home/herrcrazi/Images/rocket_building.png"
   inkscape:export-xdpi="96"
   inkscape:export-ydpi="96">
  <defs
     id="defs2" />
  <sodipodi:namedview
     id="base"
     pagecolor="#ffffff"
     bordercolor="#666666"
     borderopacity="1.0"
     inkscape:pageopacity="0.0"
     inkscape:pageshadow="2"
     inkscape:zoom="1.0405163"
     inkscape:cx="579.63505"
     inkscape:cy="740.22057"
     inkscape:document-units="mm"
     inkscape:current-layer="layer1"
     showgrid="true"
     inkscape:snap-object-midpoints="true"
     inkscape:window-width="1920"
     inkscape:window-height="1056"
     inkscape:window-x="0"
     inkscape:window-y="24"
     inkscape:window-maximized="1">
    <inkscape:grid
       type="xygrid"
       id="grid815" />
  </sodipodi:namedview>
  <metadata
     id="metadata5">
    <rdf:RDF>
      <cc:Work
         rdf:about="">
        <dc:format>image/svg+xml</dc:format>
        <dc:type
           rdf:resource="http://purl.org/dc/dcmitype/StillImage" />
        <dc:title />
      </cc:Work>
    </rdf:RDF>
  </metadata>
  <g
     inkscape:label="Calque 1"
     inkscape:groupmode="layer"
     id="layer1">
    <path
       style="fill:none;fill-rule:evenodd;stroke:#e1e1e1;stroke-width:0.66298258;stroke-linecap:butt;stroke-linejoin:miter;stroke-miterlimit:4;stroke-dasharray:none;stroke-opacity:1"
       d="M 57.107772,138.03891 72.197161,15.43763 91.058893,138.03891"
       id="path991"
       inkscape:connector-curvature="0" />
    <path
       style="fill:none;fill-rule:evenodd;stroke:#e1e1e1;stroke-width:0.94813639;stroke-linecap:butt;stroke-linejoin:miter;stroke-miterlimit:4;stroke-dasharray:none;stroke-opacity:1"
       d="M 75.969508,11.665283 149.53028,53.161104"
       id="path987"
       inkscape:connector-curvature="0" />
    <path
       style="fill:none;fill-rule:evenodd;stroke:#e1e1e1;stroke-width:0.94813639;stroke-linecap:butt;stroke-linejoin:miter;stroke-miterlimit:4;stroke-dasharray:none;stroke-opacity:1"
       d="M 175.9367,113.51866 149.53028,53.161104"
       id="path989"
       inkscape:connector-curvature="0" />
    <path
       style="fill:#ff5555;fill-opacity:1;fill-rule:evenodd;stroke:none;stroke-width:0.3772347px;stroke-linecap:butt;stroke-linejoin:miter;stroke-opacity:1"
       d="m 96.717414,224.8029 c 22.634086,7.54469 15.089396,52.81285 15.089396,52.81285 0,0 7.54469,18.86174 0,0 -7.5447,-18.86172 -22.634081,-18.86172 -22.634081,-18.86172 z"
       id="path883-5"
       inkscape:connector-curvature="0" />
    <path
       style="fill:#ff5555;fill-opacity:1;fill-rule:evenodd;stroke:none;stroke-width:0.3772347px;stroke-linecap:butt;stroke-linejoin:miter;stroke-opacity:1"
       d="m 51.449251,224.8029 c -22.634081,7.54469 -15.089388,52.81285 -15.089388,52.81285 0,0 -7.544693,18.86174 0,0 7.544695,-18.86172 22.634083,-18.86172 22.634083,-18.86172 z"
       id="path883"
       inkscape:connector-curvature="0" />
    <path
       style="fill:#f3f3f3;fill-opacity:1;fill-rule:evenodd;stroke:none;stroke-width:0.3772347px;stroke-linecap:butt;stroke-linejoin:miter;stroke-opacity:1"
       d="m 51.171483,183.30702 c -4.243997,24.13753 -4.154777,52.27049 7.822463,79.21929 h 15.089388 15.089395 c 11.977231,-26.9488 12.066451,-55.08176 7.822453,-79.21929 z"
       id="path817"
       inkscape:connector-curvature="0" />
    <path
       style="fill:#636363;fill-opacity:1;fill-rule:evenodd;stroke:none;stroke-width:0.3772347px;stroke-linecap:butt;stroke-linejoin:miter;stroke-opacity:1"
       d="m 64.652467,262.52637 -3.772347,15.08938 c 0,0 -15.08939,-1.88616 0,0 15.089388,1.88618 26.40643,0 26.40643,0 l -3.772349,-15.08938 z"
       id="path835"
       inkscape:connector-curvature="0" />
    <path
       inkscape:connector-curvature="0"
       style="fill:#f3f3f3;fill-opacity:1;fill-rule:evenodd;stroke:none;stroke-width:0.3772347px;stroke-linecap:butt;stroke-linejoin:miter;stroke-opacity:1"
       d="m 74.083335,96.543034 c 0,0 -16.462349,27.448646 -22.911852,64.129906 H 96.995187 C 90.545684,123.99168 74.083335,96.543034 74.083335,96.543034 Z"
       id="path817-6" />
    <path
       style="fill:#ff5555;fill-opacity:1;fill-rule:evenodd;stroke:none;stroke-width:0.3772347px;stroke-linecap:butt;stroke-linejoin:miter;stroke-opacity:1"
       d="m 74.083342,96.543094 c 0,0 -8.023814,13.390096 -15.062864,33.951116 H 89.146207 C 82.107157,109.93319 74.083342,96.543094 74.083342,96.543094 Z"
       id="path817-6-7"
       inkscape:connector-curvature="0" />
    <circle
       style="opacity:1;fill:#78a9fe;fill-opacity:1;stroke:#5e595b;stroke-width:1.66814971;stroke-miterlimit:4;stroke-dasharray:none;stroke-opacity:1"
       id="path930"
       cx="74.109856"
       cy="145.58359"
       r="5.6585207" />
    <path
       style="fill:#f3f3f3;fill-opacity:1;fill-rule:evenodd;stroke:none;stroke-width:1.0008502;stroke-linecap:butt;stroke-linejoin:miter;stroke-miterlimit:4;stroke-dasharray:none;stroke-opacity:1"
       d="m 78.745539,11.525359 c -2.910096,-3.0332357 -5.632231,-0.421611 -5.632231,-0.421611 0,0 2.722135,-2.6116247 0,0 -2.722134,2.611624 0.187962,5.64486 0.187962,5.64486 L 169.33445,116.8454 c 0,0 -2.91009,-3.03323 0,0 2.9101,3.03324 5.63223,0.42161 5.63223,0.42161 0,0 -2.72213,2.61163 0,0 2.72214,-2.61162 -0.18796,-5.64486 -0.18796,-5.64486 z"
       id="path938"
       inkscape:connector-curvature="0" />
    <path
       style="fill:#d1d1d1;fill-opacity:1;fill-rule:evenodd;stroke:none;stroke-width:0.39820793px;stroke-linecap:butt;stroke-linejoin:miter;stroke-opacity:1"
       d="m 78.83952,14.347789 c -1.455048,-1.516618 -2.816116,-0.210806 -2.816116,-0.210806 0,0 1.361068,-1.305812 0,0 -1.361068,1.305813 0.09398,2.822431 0.09398,2.822431 l 11.640384,12.132944 c 0,0 -1.455047,-1.516617 0,0 1.455049,1.516618 2.816117,0.210806 2.816117,0.210806 0,0 -1.361068,1.305812 0,0 1.361068,-1.305813 -0.09398,-2.822431 -0.09398,-2.822431 z"
       id="path940"
       inkscape:connector-curvature="0" />
    <path
       style="fill:#d1d1d1;fill-opacity:1;fill-rule:evenodd;stroke:none;stroke-width:0.39820793px;stroke-linecap:butt;stroke-linejoin:miter;stroke-opacity:1"
       d="m 96.300098,32.547205 c -1.455049,-1.516618 -2.816116,-0.210806 -2.816116,-0.210806 0,0 1.361067,-1.305812 0,0 -1.361068,1.305813 0.09398,2.822431 0.09398,2.822431 l 11.640388,12.132944 c 0,0 -1.45505,-1.516617 0,0 1.45505,1.516618 2.81611,0.210806 2.81611,0.210806 0,0 -1.36106,1.305812 0,0 1.36107,-1.305813 -0.094,-2.822432 -0.094,-2.822432 z"
       id="path940-3"
       inkscape:connector-curvature="0" />
    <path
       style="fill:#d1d1d1;fill-opacity:1;fill-rule:evenodd;stroke:none;stroke-width:0.39820793px;stroke-linecap:butt;stroke-linejoin:miter;stroke-opacity:1"
       d="m 113.76067,50.746622 c -1.45504,-1.516619 -2.81611,-0.210806 -2.81611,-0.210806 0,0 1.36107,-1.305813 0,0 -1.36107,1.305813 0.094,2.822431 0.094,2.822431 l 11.64038,12.132944 c 0,0 -1.45504,-1.516617 0,0 1.45505,1.516618 2.81612,0.210806 2.81612,0.210806 0,0 -1.36107,1.305812 0,0 1.36107,-1.305813 -0.094,-2.822432 -0.094,-2.822432 z"
       id="path940-5"
       inkscape:connector-curvature="0" />
    <path
       style="fill:#d1d1d1;fill-opacity:1;fill-rule:evenodd;stroke:none;stroke-width:0.39820793px;stroke-linecap:butt;stroke-linejoin:miter;stroke-opacity:1"
       d="m 131.22125,68.946038 c -1.45505,-1.516619 -2.81611,-0.210806 -2.81611,-0.210806 0,0 1.36106,-1.305813 0,0 -1.36107,1.305813 0.094,2.822431 0.094,2.822431 l 11.64038,12.13294 c 0,0 -1.45504,-1.51661 0,0 1.45505,1.516622 2.81612,0.210809 2.81612,0.210809 0,0 -1.36107,1.305813 0,0 1.36107,-1.305812 -0.094,-2.822434 -0.094,-2.822434 z"
       id="path940-6"
       inkscape:connector-curvature="0" />
    <path
       style="fill:#d1d1d1;fill-opacity:1;fill-rule:evenodd;stroke:none;stroke-width:0.39820793px;stroke-linecap:butt;stroke-linejoin:miter;stroke-opacity:1"
       d="m 160.32221,99.278393 c -1.45505,-1.516622 -2.81612,-0.210809 -2.81612,-0.210809 0,0 1.36107,-1.305813 0,0 -1.36107,1.305816 0.094,2.822436 0.094,2.822436 l 11.64038,12.13294 c 0,0 -1.45504,-1.51661 0,0 1.45505,1.51662 2.81612,0.21081 2.81612,0.21081 0,0 -1.36107,1.30581 0,0 1.36107,-1.30582 -0.094,-2.82244 -0.094,-2.82244 z"
       id="path940-2"
       inkscape:connector-curvature="0" />
    <path
       style="fill:#f3f3f3;fill-opacity:1;fill-rule:evenodd;stroke:none;stroke-width:1.25944722;stroke-linecap:butt;stroke-linejoin:miter;stroke-miterlimit:4;stroke-dasharray:none;stroke-opacity:1"
       d="m 145.75792,56.304733 c 0,-5.029796 3.77234,-5.029796 3.77234,-5.029796 0,0 -3.77234,0 0,0 3.77236,0 3.77236,5.029796 3.77236,5.029796 V 277.61575 h -7.5447 z"
       id="path983"
       inkscape:connector-curvature="0" />
  </g>
</svg>
